<svg xmlns="http://www.w3.org/2000/svg" viewBox="0 0 48 48"><title>Neuron</title><g id="Neuron"><path d="M21,18a4,4,0,1,0-4,4A4,4,0,0,0,21,18Zm-6,0a2,2,0,0,1,4,0A2,2,0,0,1,15,18Z"/><path d="M47,17a1,1,0,0,0-1,1,3,3,0,0,1-2.56,3A5.34,5.34,0,0,0,44,18a1,1,0,0,0-2,0v.76a2.61,2.61,0,0,1-1,2.07c-1.83-1.39-.66-3.25-.1-4.38a1,1,0,0,0-1.78-.9c-.79,1.58-1.77,3.17-.57,5.4A3,3,0,0,1,36,18a1,1,0,0,0-2,0,5,5,0,0,0,.08.78,2.29,2.29,0,0,1-1.19-1.23,1,1,0,0,0-1.78.9A4.23,4.23,0,0,0,35,21a5.11,5.11,0,0,0,4,2h1V35a11,11,0,0,1-22,0c0-7.51,0-6.73.07-6.94A7,7,0,0,1,25.54,24a6.94,6.94,0,0,0,2.64,1.89L29,29.24A1,1,0,0,0,31,28.76l-.62-2.49c4,0,2.66-2.66,1.33-2.22-4.46,1.48-8.77-5.3-5-10.27l1.79-.9,1.82,1.83a1,1,0,0,0,1.42-1.42l-1.37-1.37a4.2,4.2,0,0,0,2-2.89l2.33-2.32a1,1,0,0,0-1.42-1.42c-2.29,2.29.05.76-3.84-1.18a1,1,0,0,0-.9,1.78l.66.33a2.27,2.27,0,0,1,0,4.06c-4.06,2-3.32,1.73-4,1.8C21.22,12.49,18,9.41,18,7a4.44,4.44,0,0,0,2.71-1.25,1,1,0,0,0-1.42-1.42A2.31,2.31,0,0,1,18,5V1a1,1,0,0,0-2,0V2.68c-.52-.35-.58-.59-1.05-2a1,1,0,0,0-1.9.64c.47,1.41.86,3,2.95,3.54V7.79a7,7,0,0,1-7.19,4.29c-.34,0-.21.06-.61-.48A8.83,8.83,0,0,0,6,9.53a10.61,10.61,0,0,0-1.11-5,1,1,0,0,0-1.78.9A8.78,8.78,0,0,1,4,8.51,9,9,0,0,0,1,8a1,1,0,0,0,0,2,7,7,0,0,1,4.4,1.57A9.44,9.44,0,0,1,2,12a1,1,0,0,0,0,2,11,11,0,0,0,4.86-.85c4.27,5.7-.2,10,.35,9.24C6.39,23.45,7.08,22,2,22a1,1,0,0,0,0,2,9.47,9.47,0,0,1,3.4.43A7,7,0,0,1,1,26a1,1,0,0,0,0,2,9,9,0,0,0,3-.51,8.78,8.78,0,0,1-.85,3.06,1,1,0,0,0,1.78.9,10.59,10.59,0,0,0,1.11-5A8.83,8.83,0,0,0,8.2,24.4c.4-.54.27-.44.61-.48A7,7,0,0,1,16,28.21V35a13,13,0,0,0,26,0V23h1C47.64,23,49.28,17,47,17ZM9.88,21.89a8.92,8.92,0,0,0,0-7.78,9,9,0,0,0,7.12-4,9,9,0,0,0,7.12,4,8.92,8.92,0,0,0,0,7.78,9,9,0,0,0-7.12,4A9,9,0,0,0,9.88,21.89Z"/></g></svg>