<?xml version="1.0" standalone="no"?>
<!DOCTYPE svg PUBLIC "-//W3C//DTD SVG 20010904//EN"
 "http://www.w3.org/TR/2001/REC-SVG-20010904/DTD/svg10.dtd">
<svg version="1.0" xmlns="http://www.w3.org/2000/svg"
 width="500.000000pt" height="500.000000pt" viewBox="0 0 500.000000 500.000000"
 preserveAspectRatio="xMidYMid meet">

<g transform="translate(0.000000,500.000000) scale(0.100000,-0.100000)"
fill="#000000" stroke="none">
<path d="M1923 4760 c-30 -12 -37 -70 -30 -259 4 -140 8 -163 33 -226 36 -92
67 -142 117 -188 45 -42 123 -97 138 -97 5 0 9 -4 9 -8 0 -5 17 -18 38 -31 69
-41 125 -86 166 -135 39 -46 41 -51 45 -127 l3 -79 -79 0 c-110 0 -278 -49
-334 -97 -15 -12 -19 -10 -37 19 -48 76 -123 118 -215 118 -59 0 -178 -27
-252 -58 -105 -42 -305 -102 -343 -102 -25 0 -60 12 -99 33 -77 41 -98 59
-158 133 -76 94 -84 105 -112 155 -32 56 -72 75 -113 54 -27 -14 -40 -33 -40
-60 0 -18 52 -102 117 -190 l52 -70 -68 -6 c-122 -12 -165 -35 -167 -91 -1
-34 35 -68 75 -68 14 0 87 10 163 22 l136 22 39 -26 c23 -15 66 -30 109 -37
107 -18 185 -3 394 79 98 38 158 53 233 58 l78 5 39 -42 c45 -47 47 -54 23
-79 -38 -40 -89 -141 -112 -225 -20 -69 -6 -63 -126 -51 -71 8 -129 -20 -207
-99 -34 -35 -71 -75 -81 -88 -9 -13 -28 -38 -42 -55 -14 -18 -25 -34 -25 -37
0 -9 -63 -102 -72 -105 -4 -2 -8 -10 -8 -17 0 -8 -28 -42 -63 -77 -66 -66
-133 -98 -206 -98 -36 0 -194 35 -226 50 -44 21 -146 50 -173 50 -62 0 -85
-80 -35 -119 14 -12 38 -24 52 -28 14 -3 50 -17 80 -29 29 -13 61 -24 70 -24
36 0 39 -11 25 -128 -17 -147 -2 -187 67 -180 54 5 70 39 76 162 l6 106 73 0
c110 0 188 35 277 125 84 85 97 100 97 108 0 3 11 23 25 44 14 21 31 46 38 57
142 213 210 262 308 219 42 -19 45 -23 62 -84 28 -101 95 -223 155 -284 l54
-54 -29 -25 c-15 -14 -31 -26 -35 -26 -5 0 -8 -6 -8 -14 0 -7 -6 -19 -14 -25
-8 -7 -22 -44 -32 -83 -14 -58 -17 -120 -18 -332 l-1 -261 -34 -47 c-31 -43
-56 -65 -133 -111 -55 -34 -184 -77 -283 -96 -49 -9 -161 -45 -235 -77 -60
-25 -77 -54 -60 -100 16 -41 50 -47 138 -20 42 13 104 31 137 41 33 10 76 21
95 25 59 13 243 81 290 108 85 48 146 108 178 174 50 104 52 117 52 378 0 267
5 300 56 347 31 29 103 39 169 24 85 -19 268 -13 345 12 36 11 77 29 92 39 14
10 28 18 31 18 3 0 17 -24 30 -52 38 -80 88 -125 205 -180 57 -26 107 -48 113
-48 5 0 28 -8 52 -18 23 -10 58 -24 77 -31 99 -36 140 -57 140 -70 0 -4 -45
-23 -100 -41 -54 -18 -108 -41 -120 -52 -27 -26 -26 -69 4 -97 35 -33 70 -26
251 45 33 13 65 24 71 24 27 0 39 -149 25 -314 -14 -162 -8 -181 59 -181 59 0
67 17 82 179 l12 126 61 19 c107 34 180 63 187 74 4 7 8 29 8 50 0 32 -4 39
-32 53 -31 14 -38 13 -131 -19 l-98 -34 -10 24 c-5 13 -12 36 -15 51 -21 88
-111 185 -226 242 -87 44 -91 46 -251 104 -169 61 -218 101 -225 182 -5 56 13
114 66 219 17 33 36 74 42 90 19 47 29 172 21 255 -8 77 -50 200 -79 233 -15
17 -13 21 30 60 96 88 174 233 223 417 9 36 28 92 41 125 13 33 24 66 24 72 0
31 84 196 129 253 87 112 199 168 354 177 56 3 114 12 128 19 36 18 46 60 21
93 -18 24 -25 26 -118 29 -151 5 -274 -28 -377 -101 -34 -24 -44 -16 -53 41
-12 86 -41 148 -75 163 -26 10 -35 10 -58 -4 -35 -21 -39 -80 -12 -167 42
-135 53 -190 41 -206 -35 -41 -121 -247 -141 -334 -12 -56 -83 -252 -104 -292
-8 -14 -15 -31 -15 -38 0 -37 -122 -176 -143 -163 -7 4 -37 25 -67 48 -30 22
-76 50 -102 62 -46 22 -47 23 -37 55 14 49 11 128 -7 188 -20 67 -83 144 -162
197 -31 21 -59 40 -62 44 -8 9 -101 69 -106 69 -5 0 -64 41 -88 61 -4 4 19 63
53 132 83 169 81 219 -6 219 -44 0 -51 -8 -103 -116 -37 -77 -38 -79 -51 -55
-9 17 -14 79 -17 206 -3 128 -8 185 -17 193 -18 15 -67 21 -92 10z m625 -1328
c145 -70 219 -155 264 -301 35 -114 22 -241 -36 -359 -24 -49 -121 -153 -163
-174 -15 -8 -37 -19 -48 -25 -146 -77 -332 -59 -487 48 -38 27 -138 140 -138
156 0 6 -7 24 -16 42 -22 44 -35 162 -28 241 15 153 119 297 264 366 74 35
127 44 237 39 75 -4 102 -10 151 -33z"/>
<path d="M2450 3229 c-54 -33 -79 -60 -101 -108 -61 -138 41 -301 189 -301 90
0 156 43 199 130 39 76 24 159 -41 232 -60 68 -175 90 -246 47z m124 -130 c72
-33 44 -139 -37 -139 -32 0 -67 39 -67 74 0 37 7 48 40 63 32 15 34 15 64 2z"/>
<path d="M1675 1091 c3 -5 1 -12 -5 -16 -5 -3 -10 -15 -10 -26 0 -16 6 -20 27
-17 34 4 43 36 17 55 -21 15 -38 17 -29 4z"/>
<path d="M1639 1073 c-13 -16 -12 -17 4 -4 16 13 21 21 13 21 -2 0 -10 -8 -17
-17z"/>
<path d="M1433 1069 c12 -7 16 -17 12 -30 -4 -11 11 -55 40 -116 26 -54 52
-109 57 -123 10 -24 11 -23 23 23 11 41 11 53 -1 75 -8 15 -30 62 -49 105 -32
74 -35 77 -67 77 -28 -1 -30 -2 -15 -11z"/>
<path d="M1764 981 c-64 -39 -103 -143 -69 -181 27 -30 87 -27 122 6 l28 25
-27 -16 c-42 -26 -72 -17 -76 23 -2 17 1 32 7 32 6 0 8 6 5 13 -7 19 13 67 38
95 26 27 14 28 -28 3z"/>
<path d="M1830 976 c0 -14 -14 -41 -31 -61 -36 -40 -17 -39 39 2 25 19 32 31
30 51 -4 37 -38 43 -38 8z"/>
<path d="M1909 983 c-13 -16 -12 -17 3 -5 28 22 28 -2 1 -85 -14 -44 -23 -87
-20 -97 9 -24 60 -20 83 7 l19 22 -22 -18 c-11 -10 -23 -14 -26 -10 -3 5 6 46
20 91 14 45 23 88 19 97 -8 21 -60 19 -77 -2z"/>
<path d="M2057 993 c-2 -5 -10 -26 -17 -48 -7 -22 -21 -58 -32 -80 -10 -22
-13 -32 -5 -22 13 15 14 13 13 -20 -1 -33 2 -38 23 -41 13 -2 28 2 35 9 8 9 8
10 -1 5 -19 -11 -16 18 12 113 14 47 25 86 25 88 0 7 -49 2 -53 -4z"/>
<path d="M2170 990 c-13 -8 -12 -10 3 -10 21 0 22 2 -8 -99 -14 -47 -25 -89
-25 -93 0 -4 11 -8 24 -8 22 0 27 9 51 86 30 97 27 134 -8 134 -12 0 -29 -5
-37 -10z"/>
<path d="M2283 985 c0 -5 -2 -14 -3 -20 -6 -23 1 -35 20 -35 23 0 43 32 34 54
-7 17 -50 18 -51 1z"/>
<path d="M2408 984 c-70 -38 -95 -204 -31 -204 9 0 13 14 13 43 0 53 24 127
51 156 23 25 7 28 -33 5z"/>
<path d="M2478 941 c-2 -35 -14 -79 -30 -110 -30 -62 -13 -70 37 -17 55 59 67
162 20 180 -9 3 -18 6 -20 6 -1 0 -5 -26 -7 -59z"/>
<path d="M2589 983 c-13 -17 -13 -17 5 -3 18 14 19 13 13 -25 -3 -22 -15 -70
-26 -107 l-20 -68 29 0 c25 0 29 5 39 47 7 25 19 59 27 76 9 16 12 27 7 24 -4
-3 -8 11 -8 31 0 32 -3 37 -26 40 -16 2 -31 -4 -40 -15z"/>
<path d="M2699 980 c-21 -19 -21 -20 -2 -8 31 17 34 9 17 -47 -8 -28 -21 -71
-29 -97 l-14 -48 28 0 c24 0 30 6 40 43 7 23 24 65 37 92 13 28 18 42 10 32
-13 -17 -14 -15 -13 15 2 29 -1 33 -24 36 -15 2 -35 -6 -50 -18z"/>
<path d="M2815 986 c-20 -15 -20 -15 3 -9 28 7 28 5 -4 -90 -14 -43 -23 -84
-20 -92 8 -21 61 -19 77 3 12 15 12 16 -2 5 -27 -22 -28 -4 -3 70 30 88 29
121 -6 125 -14 2 -34 -4 -45 -12z"/>
<path d="M2986 970 c-41 -36 -69 -102 -64 -151 2 -29 7 -34 30 -37 15 -2 35 1
45 7 17 10 17 10 1 11 -10 0 -18 6 -19 13 -5 61 22 138 59 167 23 19 24 20 4
20 -12 0 -37 -14 -56 -30z"/>
<path d="M3065 943 c-8 -32 -21 -71 -29 -88 -19 -43 -5 -75 33 -75 16 0 33 5
37 12 4 6 3 8 -4 4 -23 -14 -22 16 3 97 31 102 31 107 1 107 -21 0 -27 -8 -41
-57z"/>
<path d="M3189 983 c-13 -16 -12 -17 4 -4 15 12 17 11 17 -5 0 -11 -12 -57
-25 -103 -14 -47 -25 -86 -25 -88 0 -2 12 -3 28 -3 24 0 29 6 46 63 11 34 20
82 20 107 1 41 -1 45 -25 48 -16 2 -31 -4 -40 -15z"/>
<path d="M3308 990 c-10 -6 -22 -21 -28 -33 -11 -22 -11 -22 6 1 16 21 44 31
44 15 0 -5 -12 -43 -26 -86 -14 -43 -23 -84 -20 -92 8 -21 61 -19 77 3 12 15
12 16 -2 5 -27 -22 -28 -4 -3 70 30 89 29 121 -6 124 -14 2 -33 -2 -42 -7z"/>
<path d="M3470 962 c-77 -77 -75 -174 4 -180 22 -2 44 2 50 9 8 9 7 11 -6 6
-22 -8 -48 18 -48 46 0 40 21 96 46 127 39 46 1 40 -46 -8z"/>
<path d="M3572 996 c3 -4 -2 -16 -13 -27 -10 -10 -19 -24 -19 -29 0 -17 29
-23 46 -9 18 15 15 61 -6 67 -8 3 -12 1 -8 -2z"/>
<path d="M3705 990 c-28 -11 -72 -60 -84 -93 -15 -38 -14 -90 1 -105 18 -18
83 -15 105 6 10 9 14 14 9 10 -6 -5 -20 -8 -33 -8 -27 0 -46 36 -32 61 4 9 6
19 3 22 -8 8 22 73 45 96 22 22 19 25 -14 11z"/>
<path d="M3755 990 c9 -15 -21 -76 -46 -94 -36 -25 -11 -19 37 9 46 27 63 57
44 80 -14 16 -45 21 -35 5z"/>
<path d="M3839 983 c-13 -17 -13 -17 5 -3 18 14 19 13 13 -25 -3 -22 -15 -70
-26 -107 l-20 -68 29 0 c26 0 29 4 41 53 6 28 18 66 24 82 17 43 5 79 -26 83
-16 2 -31 -4 -40 -15z"/>
<path d="M3939 982 c-11 -14 -11 -15 1 -4 21 19 32 14 18 -8 -10 -15 -10 -22
0 -32 18 -18 47 3 47 33 0 18 -6 24 -27 26 -15 1 -32 -5 -39 -15z"/>
<path d="M1304 806 c-10 -27 1 -51 24 -52 12 -1 20 1 17 4 -2 3 0 11 6 18 6 8
9 21 5 29 -7 19 -45 20 -52 1z"/>
<path d="M2770 670 c-19 -4 -29 -8 -22 -9 19 -2 15 -29 -27 -172 -22 -73 -39
-134 -38 -135 1 -1 14 0 28 3 27 5 39 36 95 238 9 33 19 66 21 73 6 13 -3 13
-57 2z"/>
<path d="M2268 643 c17 -7 16 -12 -20 -151 -25 -99 -36 -126 -52 -132 -13 -6
23 -9 97 -9 87 -1 117 2 117 12 0 6 3 22 6 35 6 21 4 21 -24 -7 -24 -25 -39
-31 -71 -31 -23 0 -41 4 -41 9 0 4 14 62 31 127 20 80 37 125 51 137 20 16 18
17 -43 16 -35 0 -58 -3 -51 -6z"/>
<path d="M2522 545 c-55 -46 -90 -153 -60 -183 16 -16 50 -15 74 3 18 13 18
14 -5 8 -23 -6 -24 -5 -19 44 6 62 36 124 69 140 l24 13 -27 0 c-14 0 -40 -11
-56 -25z"/>
<path d="M2604 543 c-3 -16 -15 -56 -26 -90 -24 -75 -18 -103 21 -103 16 0 35
8 42 18 13 15 12 16 -3 4 -21 -17 -31 -1 -19 30 5 12 18 56 29 96 l20 72 -29
0 c-23 0 -30 -5 -35 -27z"/>
<path d="M2820 560 c-13 -8 -12 -10 3 -10 13 0 17 -9 17 -42 0 -46 -39 -142
-61 -151 -9 -3 -5 -6 7 -6 30 -1 71 34 94 80 22 43 26 109 8 127 -14 14 -47
15 -68 2z"/>
<path d="M2970 550 c-26 -26 -25 -35 5 -92 28 -52 31 -78 13 -96 -17 -17 23
-16 44 1 29 22 29 51 3 101 -27 51 -32 91 -12 99 6 3 2 6 -10 6 -13 1 -32 -8
-43 -19z"/>
<path d="M3052 538 c2 -21 8 -33 18 -33 19 0 25 32 10 50 -20 24 -31 17 -28
-17z"/>
<path d="M2915 410 c-9 -15 3 -47 20 -54 11 -4 15 3 15 29 0 34 -20 49 -35 25z"/>
</g>
</svg>
