<?xml version="1.0" encoding="UTF-8"?>
<!DOCTYPE svg PUBLIC "-//W3C//DTD SVG 1.1//EN" "http://www.w3.org/Graphics/SVG/1.1/DTD/svg11.dtd">
<!-- Creator: CorelDRAW -->
<svg xmlns="http://www.w3.org/2000/svg" xml:space="preserve" width="6.82666in" height="6.82666in" style="shape-rendering:geometricPrecision; text-rendering:geometricPrecision; image-rendering:optimizeQuality; fill-rule:evenodd; clip-rule:evenodd"
viewBox="0 0 6.82666 6.82666"
 xmlns:xlink="http://www.w3.org/1999/xlink">
 <defs>
  <style type="text/css">
   <![CDATA[
    .fil2 {fill:none}
    .fil0 {fill:#424242}
    .fil1 {fill:#FFFFFE;fill-rule:nonzero}
   ]]>
  </style>
 </defs>
 <rect class="fil0" width="6.82666" height="6.82666"/>
 <g id="Layer_x0020_1">
  <metadata id="CorelCorpID_0Corel-Layer"/>
  <path class="fil1" d="M4.26028 2.83974c-0.0540748,0.0230079 -0.0792598,0.0855079 -0.056252,0.139583 0.0230079,0.0540748 0.0855079,0.0792598 0.139583,0.056252 0.322598,-0.138252 0.42548,-0.46839 0.532063,-0.810402 0.131409,-0.421685 0.269425,-0.864547 0.902835,-0.839213 0.0586811,0.00229921 0.108118,-0.0434055 0.110417,-0.102087 0.00229921,-0.0586811 -0.0434055,-0.108118 -0.102087,-0.110417 -0.796551,-0.0318583 -0.959421,0.49076 -1.1145,0.988386 -0.0917441,0.294402 -0.180307,0.578575 -0.412063,0.677898z"/>
  <path class="fil1" d="M3.21848 0.969161c0.00505906,-0.0584488 -0.0382205,-0.109941 -0.0966693,-0.115 -0.0584488,-0.00505906 -0.109941,0.0382205 -0.115,0.0966693 -0.0149173,0.166012 -0.0179606,0.34172 0.0126378,0.502169 0.0329016,0.172551 0.103972,0.327835 0.23802,0.43839 0.0759764,0.0626614 0.156441,0.11339 0.234575,0.162646 0.202535,0.127677 0.386043,0.24337 0.299098,0.526882 -0.0172598,0.0561457 0.0142677,0.115657 0.0704134,0.132917 0.0561457,0.0172598 0.115657,-0.0142677 0.132917,-0.0704134 0.134685,-0.439185 -0.114299,-0.596154 -0.389098,-0.769386 -0.0729685,-0.046 -0.148118,-0.093378 -0.212906,-0.146811 -0.0903622,-0.0745236 -0.139626,-0.186339 -0.163854,-0.31339 -0.0265354,-0.139142 -0.0235354,-0.295559 -0.0101339,-0.444673z"/>
  <path class="fil1" d="M5.02035 1.10095c-0.015185,-0.0568386 -0.0735787,-0.0906024 -0.130417,-0.0754173 -0.0568386,0.015185 -0.0906024,0.0735787 -0.0754173,0.130417l0.106165 0.39622c0.015185,0.0568386 0.0735787,0.0906024 0.130417,0.0754173 0.0568386,-0.015185 0.0906024,-0.0735787 0.0754173,-0.130417l-0.106165 -0.39622z"/>
  <path class="fil1" d="M3.56262 1.36596c0.025311,-0.0529252 0.0029252,-0.116358 -0.05,-0.141669 -0.0529252,-0.025311 -0.116358,-0.0029252 -0.141669,0.05l-0.177449 0.369831c-0.025311,0.0529252 -0.0029252,0.116358 0.05,0.141669 0.0529252,0.025311 0.116358,0.0029252 0.141669,-0.05l0.177449 -0.369831z"/>
  <path class="fil1" d="M3.69654 2.55195c0.249315,0 0.475039,0.101063 0.638433,0.264461 0.163398,0.163394 0.264461,0.389122 0.264461,0.638429 0,0.249307 -0.101063,0.475035 -0.264461,0.638429 -0.163394,0.163398 -0.389118,0.264461 -0.638433,0.264461 -0.249307,0 -0.475039,-0.101063 -0.638433,-0.264457 -0.163394,-0.163394 -0.264457,-0.389118 -0.264457,-0.638433 0,-0.249315 0.101063,-0.475039 0.264457,-0.638433 0.163394,-0.163394 0.389126,-0.264457 0.638433,-0.264457zm0.487598 0.415295c-0.124776,-0.12478 -0.297169,-0.201957 -0.487598,-0.201957 -0.190425,0 -0.362823,0.0771772 -0.487598,0.201953 -0.124776,0.124776 -0.201953,0.297169 -0.201953,0.487598 0,0.190429 0.0771772,0.362823 0.201953,0.487598 0.124776,0.124776 0.297173,0.201953 0.487598,0.201953 0.190429,0 0.362823,-0.0771772 0.487598,-0.201957 0.12478,-0.124776 0.201957,-0.297169 0.201957,-0.487594 0,-0.190425 -0.0771772,-0.362819 -0.201957,-0.487594z"/>
  <path class="fil1" d="M1.88213 5.76875c-0.0540748,0.0230079 -0.0792598,0.0855079 -0.056252,0.139583 0.0230079,0.0540748 0.0855079,0.0792598 0.139583,0.056252 0.0909803,-0.0389921 0.206287,-0.0695472 0.325732,-0.101193 0.33474,-0.088685 0.698555,-0.185083 0.815709,-0.515272 0.0517244,-0.145776 0.0437402,-0.324594 0.0358268,-0.501965 -0.00369291,-0.0827756 -0.00737402,-0.16522 -0.00441732,-0.239114 0.00675197,-0.168886 0.0544803,-0.300374 0.262047,-0.292075 0.0586811,0.00229921 0.108118,-0.0434055 0.110417,-0.102087 0.00229921,-0.0586811 -0.0434055,-0.108118 -0.102087,-0.110417 -0.38389,-0.0153504 -0.471378,0.208465 -0.482882,0.496248 -0.00332283,0.0831181 0.00053937,0.169689 0.00441732,0.25661 0.00698031,0.156528 0.0140276,0.314343 -0.0241575,0.421965 -0.0795039,0.224071 -0.386539,0.305425 -0.669039,0.380272 -0.12722,0.0337047 -0.250028,0.066248 -0.354898,0.111193z"/>
  <path class="fil1" d="M1.08191 3.99388c-0.0549961,-0.0209409 -0.116559,0.00666929 -0.1375,0.0616654 -0.0209409,0.0549961 0.00666929,0.116559 0.0616654,0.1375 0.152201,0.0580906 0.310831,0.117886 0.470114,0.143083 0.171677,0.0271575 0.337047,0.0122441 0.48272,-0.088748 0.128181,-0.0888622 0.225933,-0.238358 0.322886,-0.386642 0.0461575,-0.0705984 0.0921339,-0.140909 0.135752,-0.196693 0.10415,-0.133189 0.219717,-0.212087 0.383382,-0.0841063 0.046252,0.036126 0.113043,0.0279173 0.149169,-0.0183346 0.036126,-0.046252 0.0279173,-0.113043 -0.0183346,-0.149169 -0.302626,-0.236646 -0.504331,-0.106075 -0.68172,0.120776 -0.0531693,0.0679961 -0.0997835,0.139283 -0.146579,0.210858 -0.0859488,0.131461 -0.172614,0.263992 -0.26539,0.328311 -0.0933898,0.0647441 -0.207484,0.0730276 -0.329382,0.053748 -0.134287,-0.0212402 -0.283398,-0.0775236 -0.426783,-0.132248z"/>
  <path class="fil1" d="M1.39745 2.21162c-0.0317559,-0.0494724 -0.0976102,-0.0638386 -0.147083,-0.0320827 -0.0494724,0.0317559 -0.0638386,0.0976102 -0.0320827,0.147083 0.088252,0.137598 0.180634,0.280366 0.292776,0.394185 0.122102,0.123925 0.264244,0.210224 0.441909,0.215512 0.154791,0.0046063 0.322555,-0.0577362 0.488953,-0.119571 0.0770118,-0.0286181 0.153724,-0.0571299 0.225854,-0.077185 0.162976,-0.0453189 0.302858,-0.0402205 0.358453,0.159713 0.0156457,0.0566063 0.0742283,0.089811 0.130835,0.0741654 0.0566063,-0.0156457 0.089811,-0.0742283 0.0741654,-0.130835 -0.102984,-0.370358 -0.342756,-0.385169 -0.620122,-0.308043 -0.0792638,0.0220394 -0.161146,0.0524724 -0.24335,0.0830197 -0.146894,0.0545866 -0.294996,0.109622 -0.408953,0.106232 -0.113098,-0.0033622 -0.209571,-0.0643819 -0.296075,-0.152173 -0.0964724,-0.0979134 -0.18272,-0.231299 -0.26528,-0.36002z"/>
  <path class="fil1" d="M5.22618 5.60937c-0.00759449,0.0582165 0.0334488,0.111575 0.0916654,0.119169 0.0582165,0.00759449 0.111575,-0.0334488 0.119169,-0.0916654 0.0213268,-0.162827 0.0428346,-0.33226 0.0306024,-0.489835 -0.0134567,-0.173421 -0.0665197,-0.331024 -0.199008,-0.44965 -0.115567,-0.103484 -0.28398,-0.163953 -0.451016,-0.223929 -0.0775079,-0.0278307 -0.154709,-0.0555551 -0.222665,-0.0866614 -0.153709,-0.0703661 -0.257264,-0.164449 -0.17078,-0.353366 0.0243898,-0.0533858 0.000885827,-0.116441 -0.0525,-0.140831 -0.0533858,-0.0243898 -0.116441,-0.000885827 -0.140831,0.0525 -0.159898,0.349287 0.013937,0.515161 0.27578,0.635028 0.0749134,0.0342953 0.156957,0.0637559 0.239327,0.0933307 0.147531,0.0529724 0.29628,0.106382 0.381016,0.18226 0.0842283,0.0754134 0.118634,0.184244 0.128173,0.307154 0.0107717,0.138752 -0.00916929,0.29561 -0.0289331,0.446496z"/>
  <path class="fil1" d="M3.96196 3.08276c0.0880748,0 0.167823,0.0357087 0.225555,0.0934409 0.0577323,0.0577244 0.0934409,0.137476 0.0934409,0.225555 0,0.0880787 -0.0357087,0.167831 -0.0934409,0.225555 -0.0577323,0.0577323 -0.13748,0.0934409 -0.225555,0.0934409 -0.0880748,0 -0.167827,-0.0357087 -0.225559,-0.0934409 -0.0577323,-0.0577244 -0.0934409,-0.137476 -0.0934409,-0.225555 0,-0.0880787 0.0357087,-0.167831 0.0934409,-0.225555 0.0577323,-0.0577323 0.137484,-0.0934409 0.225559,-0.0934409zm0.0747205 0.244276c-0.0191102,-0.0191102 -0.0455315,-0.030937 -0.0747205,-0.030937 -0.029189,0 -0.0556142,0.0118268 -0.0747244,0.030937 -0.0191142,0.0191102 -0.030937,0.0455354 -0.030937,0.0747205 0,0.029185 0.0118228,0.0556102 0.030937,0.0747205 0.0191102,0.0191102 0.0455354,0.030937 0.0747244,0.030937 0.029189,0 0.0556102,-0.0118268 0.0747205,-0.030937 0.0191142,-0.0191102 0.030937,-0.0455354 0.030937,-0.0747205 0,-0.029185 -0.0118228,-0.0556102 -0.030937,-0.0747205z"/>
  <path class="fil1" d="M1.63109 2.84313c0.0582165,-0.00759449 0.0992598,-0.0609528 0.0916654,-0.119169 -0.00759449,-0.0582165 -0.0609528,-0.0992598 -0.119169,-0.0916654l-0.40661 0.0541339c-0.0582165,0.00759449 -0.0992598,0.0609528 -0.0916654,0.119169 0.00759449,0.0582165 0.0609528,0.0992598 0.119169,0.0916654l0.40661 -0.0541339z"/>
  <path class="fil1" d="M1.54717 4.24121c0.00505906,-0.0584488 -0.0382205,-0.109941 -0.0966693,-0.115 -0.0584488,-0.00505906 -0.109941,0.0382205 -0.115,0.0966693l-0.0365551 0.408567c-0.00505906,0.0584488 0.0382205,0.109941 0.0966693,0.115 0.0584488,0.00505906 0.109941,-0.0382205 0.115,-0.0966693l0.0365551 -0.408567z"/>
  <path class="fil1" d="M5.78656 5.17031c0.055689,-0.0184094 0.0859094,-0.0784803 0.0675,-0.134169 -0.0184094,-0.055689 -0.0784803,-0.0859094 -0.134169,-0.0675l-0.38913 0.12976c-0.055689,0.0184094 -0.0859094,0.0784803 -0.0675,0.134169 0.0184094,0.055689 0.0784803,0.0859094 0.134169,0.0675l0.38913 -0.12976z"/>
  <path class="fil1" d="M5.23373 4.98889c0.055689,-0.0184094 0.0859094,-0.0784803 0.0675,-0.134169 -0.0184094,-0.055689 -0.0784803,-0.0859094 -0.134169,-0.0675l-0.389134 0.129756c-0.055689,0.0184094 -0.0859094,0.0784803 -0.0675,0.134169 0.0184094,0.055689 0.0784803,0.0859094 0.134169,0.0675l0.389134 -0.129756z"/>
 </g>
 <rect class="fil2" width="6.82666" height="6.82666"/>
</svg>
